/* XPM */
static char *result[] = {
/* columns rows colors chars-per-pixel */
"64 64 5 1 ",
"  c #DE2C2C",
". c #DF2C2C",
"X c #DE2D2D",
"o c #DF2D2D",
"O c None",
/* pixels */
"OOOOOOOOOOOOOOOOOOOOOOOOOOOOOOOOOOOOOOOOOOOOOOOOOOOOOOOOOOOOOOOO",
"OOOOOOOOOOOOOOOOOOOOOOOOOOOOOOOOOOOOOOOOOOOOOOOOOOOOOOOOOOOOOOOO",
"OOOOOOOOOOOOOOOOOOOOOOOOOOOOOOOOOOOOOOOOOOOOOOOOOOOOOOOOOOOOOOOO",
"OOOOOOOOOOOOOOOOOOOOOOOOOOOOOOOOOOOOOOOOOOOOOOOOOOOOOOOOOOOOOOOO",
"OOOOOOOOOOOOOOOOOOOOOOOOOOOOOOOOOOOOOOOOOOOOOOOOOOOOOOOOOOOOOOOO",
"OOOOOOOOOOOOOOOOOOOOOOOOOOOOOOOOOOOOOOOOOOOOOOOOOOOOOOOOOOOOOOOO",
"OOOOOOOOOOOOOOOOOOOOOOOOOOOOOOOOOOOOOOOOOOOOOOOOOOOOOOOOOOOOOOOO",
"OOOOOOOOOOOOOOOOOOOOOOOOOOOOOOOOOOOOOOOOOOOOOOOOOOOOOOOOOOOOOOOO",
"OOOOOOOOOOOOOOOOOOOOOOOOOOOOOOOOOOOOOOOOOOOOOOOOOOOOOOOOOOOOOOOO",
"OOOOOOOOOOOOOOOOOOOOOOOOOOOOOOX.XXXXOOOOOOOOOOOOOOOOOOOOOOOOOOOO",
"OOOOOOOOOOOOOOOOOOOOOOOOOOO ooooooooooX OOOOOOOOOOOOOOOOOOOOOOOO",
"OOOOOOOOOOOOOOOOOOOOOOOOOXooooooooooooooXXOOOOOOOOOOOOOOOOOOOOOO",
"OOOOOOOOOOOOOOOOOOOOOOOoooooXoooooXOX ooooXOOOOOOOOOOOOOOOOOOOOO",
"OOOOOOOOOOOOOOOOOOOOOOXooo O OOO..XOOOOXoooXOOOOOOOOOOOOOOOOOOOO",
"OOOOOOOOOOOOOOOOOOOOOOoooXOOOOOOOO. OOOO ooo.OOOOOOOOOOOOOOOOOOO",
"OOOOOOOOOOOOOOOOOOOOO oooOOOOOOOOOOOoOOOOXooo OOOOOOOOOOOOOOOOOO",
"OOOOOOOOOOOOOOOOOOOOOooo.OOOOOOOOOOOOOOOOOooooOOOOOOOOOOOOOOOOOO",
"OOOOOOOOOOOOOOOOOOOO ooo OOOOOOOOOOOOOOOOOXooo OOOOOOOOOOOOOOOOO",
"OOOOOOOOOOOOOOOOOOOOXoooOOOOOOOOOOOOOOOOOOoooooOOOOOOOOOOOOOOOOO",
"OOOOOOOOOOOOOOOOOOOO oooOOOOOOOOOOOOOOOOOOXooooOOOOOOOOOOOOOOOOO",
"OOOOOOOOOOOOOOOOOOOO ooo OOOOOOOOOOOOOOOOOooooOOOOOOOOOOOOOOOOOO",
"OOOOOOOOOOOOOOOOOOOOOooooOOOOOOOOOOOOOOOOXooo OOOOOOOOOOOOOOOOOO",
"OOOOOOOOOOOOOOOOOOOOO.ooo.OOOOOOOOOOOOOOXoooXOOOOOOOOOOOOOOOOOOO",
"OOOOOOOOOOOOOOOOOOOOOO oooooOOOOOOOOOOoXooooOOOOOOOOOOOOOOOOOOOO",
"OOOOOOOOOOOOOOOOOOOOOOOXoooo OOOOOOOO oooo OOOOOOOOOOOOOOOOOOOOO",
"OOOOOOOOOOOOOOOOOOOOOOOOO ooooXOOOOXooooXOOOOOOOOOOOOOOOOOOOOOOO",
"OOOOOOOOOOOOOOOOOOOOOOOOOOXoooo  ooooo OOOOOOOOOOOOOOOOOOOOOOOOO",
"OOOOOOOOOOOOOOOOOOOOOOOOOOOOX oooooX OOOOOOOOOOOOOOOOOOOOOOOOOOO",
"OOOOOOOOOOOOOOOOOOOOOOOOOOOOO oooooo .OOOOOOOOOOOOOOOOOOOOOOOOOO",
"OOOOOOOOOOOOOOOOOOOOOOOOOOO ooooOXoooooXOOOOOOOOOOOOOOOOOOOOOOOO",
"OOOOOOOOOOOOOOOOOOOOOOOOOXoooXOOOOO ooooo OOOOOOOOOOOOOOOOOOOOOO",
"OOOOOOOOOOOOOOOOOOOOOOO ooo OOOOOOOOOXooooo.OOOOOOOOOOOOOOOOOOOO",
"OOOOOOOOOOOOOOOOOOOOOOXooXoOOOOOOOOOOOXooooo OOOOOOOOOOOOOOOOOOO",
"OOOOOOOOOOOOOOOOOOOOO oo.OOOOOOOOOOOOOOooooooOOOOOOOOOOOOOOOOOOO",
"OOOOOOOOOOOOOOOOOOOOooooOOOOOOOOOOOOOOOO.oooooOOOOOOOOOOOOOOOOOO",
"OOOOOOOOOOOOOOOOOOOXooo OOOOOOOOOOOOOOOOO ooooOOOOOOOOOOOOOOOOOO",
"OOOOOOOOOOOOOOOOOOOooooOOOOOOOOOOOOOOOOOOOoooooOOOOOOOOOOOOOOOOO",
"OOOOOOOOOOOOOOOOOOOooooOOOOOOOOOOOOOOOOOOOoooo OOOOOOOOOOOOOOOOO",
"OOOOOOOOOOOOOOOOOOOooooOOOOOOOOOOOOOOOOOOOooooXOOOOOOOOOOOOOOOOO",
"OOOOOOOOOOOOOOOOOOOooooOOOOOOOOOOOOOOOOOOOoooo.OOOOOOOOOOOOOOOOO",
"OOOOOOOOOOOOOOOOOOOXooo OOOOOOOOOOOOOOOOOoooooXOOOOOOOOOOOOOOOOO",
"OOOOOOOOOOOOOOOOOOOXoooo OOOOOOOOOOOOOOOO ooooOOOOOOOOOOOOOOOOOO",
"OOOOOOOOOOOOOOOOOOOOXooooXOOOOOOOOOOOOO Xoooo.OOOOOOOOOOOOOOOOOO",
"OOOOOOOOOOOOOOOOOOOOOoooooo XOOOOOOOO XoooooXOOOOOOOOOOOOOOOOOOO",
"OOOOOOOOOOOOOOOOOOOOO oooooooooo XXoooooooooOOOOOOOOOOOOOOOOOOOO",
"OOOOOOOOOOOOOOOOOOOOOOO oooooooooooooooooooOOOOOOOOOOOOOOOOOOOOO",
"OOOOOOOOOOOOOOOOOOOOOOOOoXooooooooooooooo OOOOOOOOOOOOOOOOOOOOOO",
"OOOOOOOOOOOOOOOOOOOOOOOOOOO Xooooooooo XOOOOOOOOOOOOOOOOOOOOOOOO",
"OOOOOOOOOOOOOOOOOOOOOOOOOOOOOOOOOOOOOOOOOOOOOOOOOOOOOOOOOOOOOOOO",
"OOOOOOOOOOOOOOOOOOOOOOOOOOOOOOOOOOOOOOOOOOOOOOOOOOOOOOOOOOOOOOOO",
"OOOOOOOOOOOOOOOOOOOOOOOOOOOOOOOOOOOOOOOOOOOOOOOOOOOOOOOOOOOOOOOO",
"OOOOOOOOOOOOOOOOOOOOOOOOOOOOOOOOOOOOOOOOOOOOOOOOOOOOOOOOOOOOOOOO",
"OOOOOOOOOOOOOOOOOOOOOOOOOOOOOOOOOOOOOOOOOOOOOOOOOOOOOOOOOOOOOOOO",
"OOOOOOOOOOOOOOOOOOOOOOOOOOOOOOOOOOOOOOOOOOOOOOOOOOOOOOOOOOOOOOOO",
"OOOOOOOOOOOOOOOOOOOOOOOOOOOOOOOOOOOOOOOOOOOOOOOOOOOOOOOOOOOOOOOO",
"OOOOOOOOOOOOOOOOOOOOOOOOOOOOOOOOOOOOOOOOOOOOOOOOOOOOOOOOOOOOOOOO",
"OOOOOOOOOOOOOOOOOOOOOOOOOOOOOOOOOOOOOOOOOOOOOOOOOOOOOOOOOOOOOOOO",
"OOOOOOOOOOOOOOOOOOOOOOOOOOOOOOOOOOOOOOOOOOOOOOOOOOOOOOOOOOOOOOOO",
"OOOOOOOOOOOOOOOOOOOOOOOOOOOOOOOOOOOOOOOOOOOOOOOOOOOOOOOOOOOOOOOO",
"OOOOOOOOOOOOOOOOOOOOOOOOOOOOOOOOOOOOOOOOOOOOOOOOOOOOOOOOOOOOOOOO",
"OOOOOOOOOOOOOOOOOOOOOOOOOOOOOOOOOOOOOOOOOOOOOOOOOOOOOOOOOOOOOOOO",
"OOOOOOOOOOOOOOOOOOOOOOOOOOOOOOOOOOOOOOOOOOOOOOOOOOOOOOOOOOOOOOOO",
"OOOOOOOOOOOOOOOOOOOOOOOOOOOOOOOOOOOOOOOOOOOOOOOOOOOOOOOOOOOOOOOO",
"OOOOOOOOOOOOOOOOOOOOOOOOOOOOOOOOOOOOOOOOOOOOOOOOOOOOOOOOOOOOOOOO"
};
