/* XPM */
static char *result[] = {
/* columns rows colors chars-per-pixel */
"64 64 6 1 ",
"  c #DD2C2C",
". c #DE2C2C",
"X c #DF2C2C",
"o c #DE2D2D",
"O c #DF2D2D",
"+ c None",
/* pixels */
"++++++++++++++++++++++++++++++++++++++++++++++++++++++++++++++++",
"++++++++++++++++++++++++++++++++++++++++++++++++++++++++++++++++",
"++++++++++++++++++++++++++++++++++++++++++++++++++++++++++++++++",
"++++++++++++++++++++++++++++++++++++++++++++++++++++++++++++++++",
"++++++++++++++++++++++++++++++++++++++++++++++++++++++++++++++++",
"++++++++++++++++++++++++++++++++++++++++++++++++++++++++++++++++",
"++++++++++++++++++++++++++++++++++++++++++++++++++++++++++++++++",
"++++++++++++++++++++++++++++++++++++++++++++++++++++++++++++++++",
"++++++++++++++++++++++++++++++++++++++++++++++++++++++++++++++++",
"+++++++++++++++++++++++++++++++++++++OXX++++++++++++++++++++++++",
"+++++++++++++++++++++++++++o++++++++OOOOo+++++++++++++++++++++++",
"++++++++++++++++++++++++++oO.+++++++OOOOO.++++++++++++++++++++++",
"++++++++++++++++++++++++++oOX++++++XOOOOOO++++++++++++++++++++++",
"+++++++++++++++++++++++++XOO+++++++oOOOOOO.+++++++++++++++++++++",
"+++++++++++++++++++++++++OOo+++++++OOOo.OOO+++++++++++++++++++++",
"++++++++++++++++++++++++.OOo+++++++OOO.+OOO+++++++++++++++++++++",
"++++++++++++++++++++++++OOO++++++++OOOo+OOOX++++++++++++++++++++",
"+++++++++++++++++++++++oOOo+++++++OOOO++oOO.++++++++++++++++++++",
"+++++++++++++++++++++++oOOo+++++++XOOO++.OOX++++++++++++++++++++",
"+++++++++++++++++++++++OOO++++++++oOOO++OOOo++++++++++++++++++++",
"++++++++++++++++++++++.OOO++++++++oOOO++XOOO++++++++++++++++++++",
"++++++++++++++++++++++.OOo++++++++oOOO++oOOO++++++++++++++++++++",
"++++++++++++++++++++++OOOX++++++++.OOOO+.OOO++++++++++++++++++++",
"++++++++++++++++++++++OOOX++++++++XOOO +oOOO++++++++++++++++++++",
"+++++++++++++++++++++OOOOX++++++++OOOOO+OOOO++++++++++++++++++++",
"+++++++++++++++++++++.OOO+++++++++OOOOo+XOOO++++++++++++++++++++",
"+++++++++++++++++++++.OOO+++++++++OOOO.+oOOO++++++++++++++++++++",
"+++++++++++++++++++++.OOOO++++++++OOOO.+oOOO++++++++++++++++++++",
"+++++++++++++++++++++oOOO.++++++++OOOO.+.OOO++++++++++++++++++++",
"+++++++++++++++++++++XOOOX++++++++OOOOo+OOO.++++++++++++++++++++",
"+++++++++++++++++++++oOOOO++++++++OOOOX+OOO.++++++++++++++++++++",
"++++++++++++++++++++++OOOOo.++++++OOOO..OOO+++++++++++++++++++++",
"++++++++++++++++++++++oOOOOOo+++++OOOOOOOO.+++++++++++++++++++++",
"++++++++++++++++++++++++OOOOOOO.X.OOOOOOO.++++++++++++++++++++++",
"+++++++++++++++++++++++++oOOOOOOOOOOOOOOo+++++++++++++++++++++++",
"+++++++++++++++++++++++++++.XOOOOOOOOOo.++++++++++++++++++++++++",
"++++++++++++++++++++++++++++++++.XXOOOo+++++++++++++++++++++++++",
"++++++++++++++++++++++++++++++++++.OOOO+++++++++++++++++++++++++",
"++++++++++++++++++++++++++++++++++XOOOO+++++++++++++++++++++++++",
"++++++++++++++++++++++++++++++++++oOOOO+++++++++++++++++++++++++",
"++++++++++++++++++++++++++++++++++.OOOO+++++++++++++++++++++++++",
"++++++++++++++++++++++++++++++++++oOOOO+++++++++++++++++++++++++",
"++++++++++++++++++++++++++++++++++.OOOO+++++++++++++++++++++++++",
"++++++++++++++++++++++++++++++++++.OOOOO++++++++++++++++++++++++",
"++++++++++++++++++++++++++++++++++.OOOO.++++++++++++++++++++++++",
"++++++++++++++++++++++++++++++++++oOOOO.++++++++++++++++++++++++",
"++++++++++++++++++++++++++++++++++.OOOOo++++++++++++++++++++++++",
"++++++++++++++++++++++++++++++++++oOOOOO++++++++++++++++++++++++",
"++++++++++++++++++++++++++++++++++oOOOOO.+++++++++++++++++++++++",
"+++++++++++++++++++++++++++++++++++OOOOO.+++++++++++++++++++++++",
"++++++++++++++++++++++++++++++++++++XoOo++++++++++++++++++++++++",
"++++++++++++++++++++++++++++++++++++++++++++++++++++++++++++++++",
"++++++++++++++++++++++++++++++++++++++++++++++++++++++++++++++++",
"++++++++++++++++++++++++++++++++++++++++++++++++++++++++++++++++",
"++++++++++++++++++++++++++++++++++++++++++++++++++++++++++++++++",
"++++++++++++++++++++++++++++++++++++++++++++++++++++++++++++++++",
"++++++++++++++++++++++++++++++++++++++++++++++++++++++++++++++++",
"++++++++++++++++++++++++++++++++++++++++++++++++++++++++++++++++",
"++++++++++++++++++++++++++++++++++++++++++++++++++++++++++++++++",
"++++++++++++++++++++++++++++++++++++++++++++++++++++++++++++++++",
"++++++++++++++++++++++++++++++++++++++++++++++++++++++++++++++++",
"++++++++++++++++++++++++++++++++++++++++++++++++++++++++++++++++",
"++++++++++++++++++++++++++++++++++++++++++++++++++++++++++++++++",
"++++++++++++++++++++++++++++++++++++++++++++++++++++++++++++++++"
};
