/* XPM */
static char *result[] = {
/* columns rows colors chars-per-pixel */
"64 64 6 1 ",
"  c #DD2D2D",
". c #DE2C2C",
"X c #DF2C2C",
"o c #DE2D2D",
"O c #DF2D2D",
"+ c None",
/* pixels */
"++++++++++++++++++++++++++++++++++++++++++++++++++++++++++++++++",
"++++++++++++++++++++++++++++++++++++++++++++++++++++++++++++++++",
"++++++++++++++++++++++++++++++++++++++++++++++++++++++++++++++++",
"++++++++++++++++++++++++++++++++++++++++++++++++++++++++++++++++",
"++++++++++++++++++++++++++++++++++++++++++++++++++++++++++++++++",
"++++++++++++++++++++++++++++++++++++++++++++++++++++++++++++++++",
"++++++++++++++++++++++++++++++++++++++++++++++++++++++++++++++++",
"++++++++++++++++++++++++++++++++++++++++++++++++++++++++++++++++",
"++++++++++++++++++++++++++++++++++++++++++++++++++++++++++++++++",
"++++++++++++++++++++++++++++++++++++++++++++++++++++++++++++++++",
"+++++++++++++++++++++++++++++..OOOOOoX++++++++++++++++++++++++++",
"+++++++++++++++++++++++++++o.OOOOOOOOOOo++++++++++++++++++++++++",
"++++++++++++++++++++++++++.OOOOOOOOOOOOOO+++++++++++++++++++++++",
"+++++++++++++++++++++++++.OO.o++++++XOOOO.++++++++++++++++++++++",
"++++++++++++++++++++++++oOOO+++++++++OOOOO.+++++++++++++++++++++",
"+++++++++++++++++++++++oOO.+++++++++++.OOOO ++++++++++++++++++++",
"++++++++++++++++++++++XOOo+++++++++++++oOOOo++++++++++++++++++++",
"++++++++++++++++++++++OOO++++++++++++++XOOOO++++++++++++++++++++",
"+++++++++++++++++++++XOO.+++++++++++++++OOOOo+++++++++++++++++++",
"+++++++++++++++++++++oOO.+++++++++++++++OOOOo+++++++++++++++++++",
"+++++++++++++++++++++OOO++++++++++++++++oOOOo+++++++++++++++++++",
"++++++++++++++++++++OOOO++++++++++++++++.OOOo+++++++++++++++++++",
"++++++++++++++++++++.OOO++++++++++++++++OOOOX+++++++++++++++++++",
"++++++++++++++++++++.OOO++++++++++++++++OOOO.+++++++++++++++++++",
"++++++++++++++++++++oOOO+++++++++++++XO+OOOOX+++++++++++++++++++",
"++++++++++++++++++++OOOO+++++++++++++.O+OOOO.+++++++++++++++++++",
"+++++++++++++++++++++OOOo++++++++++++OO+OOOOX+++++++++++++++++++",
"+++++++++++++++++++++OOOO+++++++++++OOo.OOOO++++++++++++++++++++",
"+++++++++++++++++++++OOOO.++++++++++OX+XOOOO++++++++++++++++++++",
"++++++++++++++++++++++XOOOo++++++++oOo+OOOOo++++++++++++++++++++",
"++++++++++++++++++++++XOOOO.+++++.oO.++OOOO.++++++++++++++++++++",
"+++++++++++++++++++++++XOOOOOOOOOOOX++OOOOO+++++++++++++++++++++",
"++++++++++++++++++++++++.OOOOOOOOO.+++oOOOO+++++++++++++++++++++",
"++++++++++++++++++++++++++oOOOO..+++++OOOO.+++++++++++++++++++++",
"+++++++++++++++++++++++++++++++++++++oOOOO++++++++++++++++++++++",
"+++++++++++++++++++++++++++++++++++++OOOOX++++++++++++++++++++++",
"++++++++++++++++++++++++++++++++++++XOOOO ++++++++++++++++++++++",
"++++++++++++++++++++++++++++++++++++oOOO.+++++++++++++++++++++++",
"+++++++++++++++++++++++++++++++++++.OOOO++++++++++++++++++++++++",
"+++++++++++++++++++++++++++++++++++OOOO.++++++++++++++++++++++++",
"++++++++++++++++++++++++++++++++++OOOOO+++++++++++++++++++++++++",
"+++++++++++++++++++++++++++++++++XOOOOo+++++++++++++++++++++++++",
"+++++++++++++++++++++++++++++++++OOOOO++++++++++++++++++++++++++",
"++++++++++++++++++++++++++++++++.OOOo+++++++++++++++++++++++++++",
"+++++++++++++++++++++++++++++++XOOO.++++++++++++++++++++++++++++",
"++++++++++++++++++++++++++++++oOOOO+++++++++++++++++++++++++++++",
"++++++++++++++++++++++++++++++OOOX++++++++++++++++++++++++++++++",
"+++++++++++++++++++++++++++++XOOX+++++++++++++++++++++++++++++++",
"++++++++++++++++++++++++++++.OOo++++++++++++++++++++++++++++++++",
"++++++++++++++++++++++++++++..O+++++++++++++++++++++++++++++++++",
"++++++++++++++++++++++++++++++++++++++++++++++++++++++++++++++++",
"++++++++++++++++++++++++++++++++++++++++++++++++++++++++++++++++",
"++++++++++++++++++++++++++++++++++++++++++++++++++++++++++++++++",
"++++++++++++++++++++++++++++++++++++++++++++++++++++++++++++++++",
"++++++++++++++++++++++++++++++++++++++++++++++++++++++++++++++++",
"++++++++++++++++++++++++++++++++++++++++++++++++++++++++++++++++",
"++++++++++++++++++++++++++++++++++++++++++++++++++++++++++++++++",
"++++++++++++++++++++++++++++++++++++++++++++++++++++++++++++++++",
"++++++++++++++++++++++++++++++++++++++++++++++++++++++++++++++++",
"++++++++++++++++++++++++++++++++++++++++++++++++++++++++++++++++",
"++++++++++++++++++++++++++++++++++++++++++++++++++++++++++++++++",
"++++++++++++++++++++++++++++++++++++++++++++++++++++++++++++++++",
"++++++++++++++++++++++++++++++++++++++++++++++++++++++++++++++++",
"++++++++++++++++++++++++++++++++++++++++++++++++++++++++++++++++"
};
