/* XPM */
static char *result[] = {
/* columns rows colors chars-per-pixel */
"64 64 6 1 ",
"  c #DD2D2D",
". c #DE2C2C",
"X c #DF2C2C",
"o c #DE2D2D",
"O c #DF2D2D",
"+ c None",
/* pixels */
"++++++++++++++++++++++++++++++++++++++++++++++++++++++++++++++++",
"++++++++++++++++++++++++++++++++++++++++++++++++++++++++++++++++",
"++++++++++++++++++++++++++++++++++++++++++++++++++++++++++++++++",
"++++++++++++++++++++++++++++++++++++++++++++++++++++++++++++++++",
"++++++++++++++++++++++++++++++++++++++++++++++++++++++++++++++++",
"++++++++++++++++++++++++++++++++++++++++++++++++++++++++++++++++",
"++++++++++++++++++++++++++++++++++++++++++++++++++++++++++++++++",
"++++++++++++++++++++++++++++++++++++++++++++++++++++++++++++++++",
"++++++++++++++++++++++++++++++++++++++++++++++++++++++++++++++++",
"++++++++++++++++++++++++++++++++++++++++++++++++++++++++++++++++",
"++++++++++++++++++++++++++++++++.OOO.+++++++++++++++++++++++++++",
"++++++++++++++++++++++++++++++++XOOO.+++++++++++++++++++++++++++",
"++++++++++++++++++++++++++++++++OOOOO+++++++++++++++++++++++++++",
"++++++++++++++++++++++++++++++++OOOOO+++++++++++++++++++++++++++",
"+++++++++++++++++++++++++++++++.OOOOO+++++++++++++++++++++++++++",
"+++++++++++++++++++++++++++++++OOOOOO+++++++++++++++++++++++++++",
"++++++++++++++++++++++++++++++.OOOOOO+++++++++++++++++++++++++++",
"+++++++++++++++++++++++++++++.OOOOOOO+++++++++++++++++++++++++++",
"+++++++++++++++++++++++++++.OOOOOOOOO+++++++++++++++++++++++++++",
"+++++++++++++++++++++++++++.OOOOoOOOO+++++++++++++++++++++++++++",
"+++++++++++++++++++++++++++++.O+.OOOO+++++++++++++++++++++++++++",
"++++++++++++++++++++++++++++++++oOOOO+++++++++++++++++++++++++++",
"++++++++++++++++++++++++++++++++XOOOO+++++++++++++++++++++++++++",
"+++++++++++++++++++++++++++++++++OOOO+++++++++++++++++++++++++++",
"+++++++++++++++++++++++++++++++++OOOO+++++++++++++++++++++++++++",
"+++++++++++++++++++++++++++++++++OOOO+++++++++++++++++++++++++++",
"+++++++++++++++++++++++++++++++++OOOO+++++++++++++++++++++++++++",
"+++++++++++++++++++++++++++++++++OOOO+++++++++++++++++++++++++++",
"+++++++++++++++++++++++++++++++++OOOO+++++++++++++++++++++++++++",
"+++++++++++++++++++++++++++++++++OOOO+++++++++++++++++++++++++++",
"+++++++++++++++++++++++++++++++++OOOO+++++++++++++++++++++++++++",
"+++++++++++++++++++++++++++++++++OOOO.++++++++++++++++++++++++++",
"+++++++++++++++++++++++++++++++++OOOO ++++++++++++++++++++++++++",
"+++++++++++++++++++++++++++++++++OOOO.++++++++++++++++++++++++++",
"+++++++++++++++++++++++++++++++++OOOOo++++++++++++++++++++++++++",
"+++++++++++++++++++++++++++++++++OOOO.++++++++++++++++++++++++++",
"+++++++++++++++++++++++++++++++++OOOOo++++++++++++++++++++++++++",
"+++++++++++++++++++++++++++++++++OOOO.++++++++++++++++++++++++++",
"+++++++++++++++++++++++++++++++++oOOOo++++++++++++++++++++++++++",
"+++++++++++++++++++++++++++++++++.OOO.++++++++++++++++++++++++++",
"+++++++++++++++++++++++++++++++++.OOO.++++++++++++++++++++++++++",
"+++++++++++++++++++++++++++++++++oOOOo++++++++++++++++++++++++++",
"+++++++++++++++++++++++++++++++++.OOO.++++++++++++++++++++++++++",
"+++++++++++++++++++++++++++++++++oOOOo++++++++++++++++++++++++++",
"+++++++++++++++++++++++++++++++++.OOO.++++++++++++++++++++++++++",
"+++++++++++++++++++++++++++++++++oOOO.++++++++++++++++++++++++++",
"+++++++++++++++++++++++++++++++++XOOOo++++++++++++++++++++++++++",
"+++++++++++++++++++++++++++++++++XOOOo++++++++++++++++++++++++++",
"++++++++++++++++++++++++++++++++++ooO+++++++++++++++++++++++++++",
"++++++++++++++++++++++++++++++++++++++++++++++++++++++++++++++++",
"++++++++++++++++++++++++++++++++++++++++++++++++++++++++++++++++",
"++++++++++++++++++++++++++++++++++++++++++++++++++++++++++++++++",
"++++++++++++++++++++++++++++++++++++++++++++++++++++++++++++++++",
"++++++++++++++++++++++++++++++++++++++++++++++++++++++++++++++++",
"++++++++++++++++++++++++++++++++++++++++++++++++++++++++++++++++",
"++++++++++++++++++++++++++++++++++++++++++++++++++++++++++++++++",
"++++++++++++++++++++++++++++++++++++++++++++++++++++++++++++++++",
"++++++++++++++++++++++++++++++++++++++++++++++++++++++++++++++++",
"++++++++++++++++++++++++++++++++++++++++++++++++++++++++++++++++",
"++++++++++++++++++++++++++++++++++++++++++++++++++++++++++++++++",
"++++++++++++++++++++++++++++++++++++++++++++++++++++++++++++++++",
"++++++++++++++++++++++++++++++++++++++++++++++++++++++++++++++++",
"++++++++++++++++++++++++++++++++++++++++++++++++++++++++++++++++",
"++++++++++++++++++++++++++++++++++++++++++++++++++++++++++++++++"
};
