/* XPM */
static char *result[] = {
/* columns rows colors chars-per-pixel */
"64 64 6 1 ",
"  c #DD2C2C",
". c #DE2C2C",
"X c #DF2C2C",
"o c #DE2D2D",
"O c #DF2D2D",
"+ c None",
/* pixels */
"++++++++++++++++++++++++++++++++++++++++++++++++++++++++++++++++",
"++++++++++++++++++++++++++++++++++++++++++++++++++++++++++++++++",
"++++++++++++++++++++++++++++++++++++++++++++++++++++++++++++++++",
"++++++++++++++++++++++++++++++++++++++++++++++++++++++++++++++++",
"++++++++++++++++++++++++++++++++++++++++++++++++++++++++++++++++",
"++++++++++++++++++++++++++++++++++++++++++++++++++++++++++++++++",
"++++++++++++++++++++++++++++++++++++++++++++++++++++++++++++++++",
"++++++++++++++++++++++++++++++++++++++++++++++++++++++++++++++++",
"++++++++++++++++++++++++++++++++++++++++++++++++++++++++++++++++",
"++++++++++++++++++++++++++++++++++++++++++++++++++++++++++++++++",
"+++++++++++++++++++.OOOOO.X++++++++++++++++o.O.+++++++++++++++++",
"++++++++++++++++++oOOOOOOOOOOXoO++++++++++.OOOO+++++++++++++++++",
"++++++++++++++++++XOOOOOOOOOOOOOOOoooO+++.OOOOO.++++++++++++++++",
"++++++++++++++++++OOOOOOOOOOOOOOOOOOOOOOOOOOOOO+++++++++++++++++",
"+++++++++++++++++++O.oXooOOOOOOOOOOOOOOOOOOOOOo+++++++++++++++++",
"+++++++++++++++++++O++++++++.ooOOOOOOOOOOOOOO+++++++++++++++++++",
"++++++++++++++++++++++++++++++++++++++O.OOO ++++++++++++++++++++",
"+++++++++++++++++++++++++++++++++++++++OOOO+++++++++++++++++++++",
"++++++++++++++++++++++++++++++++++++++.OOOX+++++++++++++++++++++",
"++++++++++++++++++++++++++++++++++++++OOO.++++++++++++++++++++++",
"+++++++++++++++++++++++++++++++++++++oOOO+++++++++++++++++++++++",
"+++++++++++++++++++++++++++++++++++++OOOo+++++++++++++++++++++++",
"++++++++++++++++++++++++++++++++++++XOOO++++++++++++++++++++++++",
"+++++++++++++++++++++++++++++++++++OOOOO++++++++++++++++++++++++",
"+++++++++++++++++++++++++++++++++++oOOO+++++++++++++++++++++++++",
"++++++++++++++++++++++++++++++++++OOOOX+++++++++++++++++++++++++",
"++++++++++++++++++++++++++++++++++oOOOo+++++++++++++++++++++++++",
"++++++++++++++++++++++++++++++++++OOOO++++++++++++++++++++++++++",
"+++++++++++++++++++++++++++++++++oOOOo++++++++++++++++++++++++++",
"+++++++++++++++++++++++++++++++++OOOO+++++++++++++++++++++++++++",
"++++++++++++++++++++++++++++++++.OOOO+++++++++++++++++++++++++++",
"++++++++++++++++++++++++++++++++OOOO.+++++++++++++++++++++++++++",
"+++++++++++++++++++++++++++++++.OOOOO+++++++++++++++++++++++++++",
"+++++++++++++++++++++++++++++++.OOOO++++++++++++++++++++++++++++",
"+++++++++++++++++++++++++++++++OOOOX++++++++++++++++++++++++++++",
"++++++++++++++++++++++++++++++XOOOOX++++++++++++++++++++++++++++",
"++++++++++++++++++++++++++++++oOOOO+++++++++++++++++++++++++++++",
"++++++++++++++++++++++++++++++OOOOO+++++++++++++++++++++++++++++",
"++++++++++++++++++++++++++++++OOOOO+++++++++++++++++++++++++++++",
"+++++++++++++++++++++++++++++.OOOOo+++++++++++++++++++++++++++++",
"+++++++++++++++++++++++++++++.OOOO.+++++++++++++++++++++++++++++",
"+++++++++++++++++++++++++++++oOOOO.+++++++++++++++++++++++++++++",
"+++++++++++++++++++++++++++++OOOOOO+++++++++++++++++++++++++++++",
"+++++++++++++++++++++++++++++OOOOO++++++++++++++++++++++++++++++",
"+++++++++++++++++++++++++++++OOOOO++++++++++++++++++++++++++++++",
"+++++++++++++++++++++++++++++OOOO.++++++++++++++++++++++++++++++",
"++++++++++++++++++++++++++++OOOOOX++++++++++++++++++++++++++++++",
"+++++++++++++++++++++++++++++OOO.+++++++++++++++++++++++++++++++",
"++++++++++++++++++++++++++++++XO++++++++++++++++++++++++++++++++",
"++++++++++++++++++++++++++++++++++++++++++++++++++++++++++++++++",
"++++++++++++++++++++++++++++++++++++++++++++++++++++++++++++++++",
"++++++++++++++++++++++++++++++++++++++++++++++++++++++++++++++++",
"++++++++++++++++++++++++++++++++++++++++++++++++++++++++++++++++",
"++++++++++++++++++++++++++++++++++++++++++++++++++++++++++++++++",
"++++++++++++++++++++++++++++++++++++++++++++++++++++++++++++++++",
"++++++++++++++++++++++++++++++++++++++++++++++++++++++++++++++++",
"++++++++++++++++++++++++++++++++++++++++++++++++++++++++++++++++",
"++++++++++++++++++++++++++++++++++++++++++++++++++++++++++++++++",
"++++++++++++++++++++++++++++++++++++++++++++++++++++++++++++++++",
"++++++++++++++++++++++++++++++++++++++++++++++++++++++++++++++++",
"++++++++++++++++++++++++++++++++++++++++++++++++++++++++++++++++",
"++++++++++++++++++++++++++++++++++++++++++++++++++++++++++++++++",
"++++++++++++++++++++++++++++++++++++++++++++++++++++++++++++++++",
"++++++++++++++++++++++++++++++++++++++++++++++++++++++++++++++++"
};
