/* XPM */
static char *result[] = {
/* columns rows colors chars-per-pixel */
"64 64 6 1 ",
"  c #DD2C2C",
". c #DE2C2C",
"X c #DF2C2C",
"o c #DE2D2D",
"O c #DF2D2D",
"+ c None",
/* pixels */
"++++++++++++++++++++++++++++++++++++++++++++++++++++++++++++++++",
"++++++++++++++++++++++++++++++++++++++++++++++++++++++++++++++++",
"++++++++++++++++++++++++++++++++++++++++++++++++++++++++++++++++",
"++++++++++++++++++++++++++++++++++++++++++++++++++++++++++++++++",
"++++++++++++++++++++++++++++++++++++++++++++++++++++++++++++++++",
"++++++++++++++++++++++++++++++++++++++++++++++++++++++++++++++++",
"++++++++++++++++++++++++++++++++++++++++++++++++++++++++++++++++",
"++++++++++++++++++++++++++++++++++++++++++++++++++++++++++++++++",
"++++++++++++++++++++++++++++++++++++++++++++++++++++++++++++++++",
"++++++++++++++++++++++++++++++++++++++++++++++++++++++++++++++++",
"+++++++++++++++++++++++++++++++++Oo.++++++++++++++++++++++++++++",
"++++++++++++++++++++++++++++++++.OO.++++++++++++++++++++++++++++",
"+++++++++++++++++++++++++++++++.OOo+++++++++++++++++++++++++++++",
"+++++++++++++++++++++++++++++oOOOo++++++++++++++++++++++++++++++",
"++++++++++++++++++++++++++++oOOOX+++++++++++++++++++++++++++++++",
"+++++++++++++++++++++++++++XOOOO++++++++++++++++++++++++++++++++",
"++++++++++++++++++++++++++OOOOOo++++++++++++++++++++++++++++++++",
"++++++++++++++++++++++++++OOOOo+++++++++++++++++++++++++++++++++",
"+++++++++++++++++++++++++oOOOo++++++++++++++++++++++++++++++++++",
"++++++++++++++++++++++++oOOOO+++++++++++++++++++++++++++++++++++",
"++++++++++++++++++++++++OOOO.+++++++++++++++++++++++++++++++++++",
"+++++++++++++++++++++++XOOOO++++++++++++++++++++++++++++++++++++",
"++++++++++++++++++++++XOOOOo++++++++++++.o.+++++++++++++++++++++",
"++++++++++++++++++++++oOOOo++++++++++OOOOOOO.+++++++++++++++++++",
"+++++++++++++++++++++OOOOO.+++++++++.OOOOOOOOX++++++++++++++++++",
"+++++++++++++++++++++oOOOO+++++++++oOOO++.OOOo++++++++++++++++++",
"+++++++++++++++++++++OOOOX++++++++.OOO.+++OOOO++++++++++++++++++",
"++++++++++++++++++++.OOOO+++++++++OOOO++++oOOOo+++++++++++++++++",
"++++++++++++++++++++oOOOO++++++++oOOO.++++OOOO.+++++++++++++++++",
"++++++++++++++++++++OOOOo++++++++OOOOo++++OOOOX+++++++++++++++++",
"+++++++++++++++++++oOOOO.+++++++.OOOO+++++XOOOo+++++++++++++++++",
"+++++++++++++++++++.OOOO++++++++oOOOO+++++OOOOo+++++++++++++++++",
"+++++++++++++++++++OOOOO++++++++OOOOX+++++oOOO.+++++++++++++++++",
"+++++++++++++++++++OOOO.+++++++.OOOOX+++++oOOO.+++++++++++++++++",
"+++++++++++++++++++OOOOo+++++++oOOOO.+++++OOOO++++++++++++++++++",
"++++++++++++++++++ OOOOo+++++++OOOOO+++++.OOOX++++++++++++++++++",
"++++++++++++++++++OOOOOO+++++++OOOOO+++++OOOOo++++++++++++++++++",
"++++++++++++++++++OOOOO++++++++OOOOO++++XOOOo+++++++++++++++++++",
"++++++++++++++++++.OOOO++++++++OOOOO++++OOOO.+++++++++++++++++++",
"++++++++++++++++++.OOOO++++++++OOOOO+++XOOOo++++++++++++++++++++",
"++++++++++++++++++oOOOO++++++++OOOOO++oOOOOO++++++++++++++++++++",
"+++++++++++++++++++OOOO++++++++OOOOO.+OOOO.+++++++++++++++++++++",
"+++++++++++++++++++OOOOo+++++++.OOOO.oOOOo++++++++++++++++++++++",
"+++++++++++++++++++XOOO.+++++++XOOOOOOOOo+++++++++++++++++++++++",
"+++++++++++++++++++oOOOO+++++++oOOOOOOO.++++++++++++++++++++++++",
"++++++++++++++++++++OOOO +++++++OOOOOOO+++++++++++++++++++++++++",
"++++++++++++++++++++XOOOOo++++++OOOOOo++++++++++++++++++++++++++",
"+++++++++++++++++++++oOOOO.+++OoOOOOO.++++++++++++++++++++++++++",
"++++++++++++++++++++++.OOOOOOOOOOOOOOo++++++++++++++++++++++++++",
"+++++++++++++++++++++++oOOOOOOOOoOOOOO++++++++++++++++++++++++++",
"++++++++++++++++++++++++++OX.oo++oOOO.++++++++++++++++++++++++++",
"++++++++++++++++++++++++++++++++++OOO+++++++++++++++++++++++++++",
"++++++++++++++++++++++++++++++++++X.++++++++++++++++++++++++++++",
"++++++++++++++++++++++++++++++++++++++++++++++++++++++++++++++++",
"++++++++++++++++++++++++++++++++++++++++++++++++++++++++++++++++",
"++++++++++++++++++++++++++++++++++++++++++++++++++++++++++++++++",
"++++++++++++++++++++++++++++++++++++++++++++++++++++++++++++++++",
"++++++++++++++++++++++++++++++++++++++++++++++++++++++++++++++++",
"++++++++++++++++++++++++++++++++++++++++++++++++++++++++++++++++",
"++++++++++++++++++++++++++++++++++++++++++++++++++++++++++++++++",
"++++++++++++++++++++++++++++++++++++++++++++++++++++++++++++++++",
"++++++++++++++++++++++++++++++++++++++++++++++++++++++++++++++++",
"++++++++++++++++++++++++++++++++++++++++++++++++++++++++++++++++",
"++++++++++++++++++++++++++++++++++++++++++++++++++++++++++++++++"
};
