/* XPM */
static char *result[] = {
/* columns rows colors chars-per-pixel */
"64 64 7 1 ",
"  c #DD2C2C",
". c #DD2D2D",
"X c #DE2C2C",
"o c #DF2C2C",
"O c #DE2D2D",
"+ c #DF2D2D",
"@ c None",
/* pixels */
"@@@@@@@@@@@@@@@@@@@@@@@@@@@@@@@@@@@@@@@@@@@@@@@@@@@@@@@@@@@@@@@@",
"@@@@@@@@@@@@@@@@@@@@@@@@@@@@@@@@@@@@@@@@@@@@@@@@@@@@@@@@@@@@@@@@",
"@@@@@@@@@@@@@@@@@@@@@@@@@@@@@@@@@@@@@@@@@@@@@@@@@@@@@@@@@@@@@@@@",
"@@@@@@@@@@@@@@@@@@@@@@@@@@@@@@@@@@@@@@@@@@@@@@@@@@@@@@@@@@@@@@@@",
"@@@@@@@@@@@@@@@@@@@@@@@@@@@@@@@@@@@@@@@@@@@@@@@@@@@@@@@@@@@@@@@@",
"@@@@@@@@@@@@@@@@@@@@@@@@@@@@@@@@@@@@@@@@@@@@@@@@@@@@@@@@@@@@@@@@",
"@@@@@@@@@@@@@@@@@@@@@@@@@@@@@@@@@@@@@@@@@@@@@@@@@@@@@@@@@@@@@@@@",
"@@@@@@@@@@@@@@@@@@@@@@@@@@@@@@@@@@@@@@@@@@@@@@@@@@@@@@@@@@@@@@@@",
"@@@@@@@@@@@@@@@@@@@@@@@@@@@@@@@@@@@@@@@@@@@@@@@@@@@@@@@@@@@@@@@@",
"@@@@@@@@@@@@@@@@@@@@@@@@@@@@@@@@@@@@@@@@@@@@@@@@@@@@@@@@@@@@@@@@",
"@@@@@@@@@@@@@@@@@@@@@@@@@@@@@Xoo++++OXO@@@@@@@@@@@@@@@@@@@@@@@@@",
"@@@@@@@@@@@@@@@@@@@@@@@@@@o+++++++++++++X@@@@@@@@@@@@@@@@@@@@@@@",
"@@@@@@@@@@@@@@@@@@@@@@@@O++++++++++++++++++@@@@@@@@@@@@@@@@@@@@@",
"@@@@@@@@@@@@@@@@@@@@@@X++++++++++++++++++++O+@@@@@@@@@@@@@@@@@@@",
"@@@@@@@@@@@@@@@@@@@@@X+++++++++++++++@o++++++O@@@@@@@@@@@@@@@@@@",
"@@@@@@@@@@@@@@@@@@@X+++OOo+XooOXO++++O@@X+++++o@@@@@@@@@@@@@@@@@",
"@@@@@@@@@@@@@@@@@@O+++O@@@@@@@@@@@X+++ @@++++++.@@@@@@@@@@@@@@@@",
"@@@@@@@@@@@@@@@@@@+++@@@@@@@@@@@@@@@X++@@@@O++++@@@@@@@@@@@@@@@@",
"@@@@@@@@@@@@@@@@@X+++@@@@@@@@@@@@@@@@+XX@@@@O+++O@@@@@@@@@@@@@@@",
"@@@@@@@@@@@@@@@@X++X@@@@@@@@@@@@@@@@@@@X@@@@@++++o@@@@@@@@@@@@@@",
"@@@@@@@@@@@@@@@@+++@@@@@@@@@@@@@@@@@@@@@@@@@@O+++o@@@@@@@@@@@@@@",
"@@@@@@@@@@@@@@@O++O@@@@@@@@@@@@@@@@@@@@@@@@@@@O+++o@@@@@@@@@@@@@",
"@@@@@@@@@@@@@@X+++@@@@@@@@@@@@@@@@@@@@@@@@@@@@O+++O@@@@@@@@@@@@@",
"@@@@@@@@@@@@@@o++O@@@@@@@@@@@@@@@@@@@@@@@@@@@@@++++@@@@@@@@@@@@@",
"@@@@@@@@@@@@@@++++@@@@@@@@@@@@@@@@@@@@@@@@@@@@@O+++X@@@@@@@@@@@@",
"@@@@@@@@@@@@@o+++@@@@@@@@@@@@@@@@@@@@@@@@@@@@@@o++++@@@@@@@@@@@@",
"@@@@@@@@@@@@@O+++@@@@@@@@@@@@@@@@@@@@@@@@@@@@@@++++X@@@@@@@@@@@@",
"@@@@@@@@@@@@@O++O@@@@@@@@@@@@@@@@@@@@@@@@@@@@@@@++++@@@@@@@@@@@@",
"@@@@@@@@@@@@@X++o@@@@@@@@@@@@@@@@@@@@@@@@@@@@@@@++++@@@@@@@@@@@@",
"@@@@@@@@@@@@@++++@@@@@@@@@@@@@@@@@@@@@@@@@@@@@@+++++@@@@@@@@@@@@",
"@@@@@@@@@@@@@O+++@@@@@@@@@@@@@@@@@@@@@@@@@@@@@@++++o@@@@@@@@@@@@",
"@@@@@@@@@@@@@O+++@@@@@@@@@@@@@@@@@@@@@@@@@@@@@@+++++@@@@@@@@@@@@",
"@@@@@@@@@@@@@+++++@@@@@@@@@@@@@@@@@@@@@@@@@@@@@++++X@@@@@@@@@@@@",
"@@@@@@@@@@@@@X+++O@@@@@@@@@@@@@@@@@@@@@@@@@@@@@++++O@@@@@@@@@@@@",
"@@@@@@@@@@@@@@++++@@@@@@@@@@@@@@@@@@@@@@@@@@@@ ++++@@@@@@@@@@@@@",
"@@@@@@@@@@@@@@o+++X@@@@@@@@@@@@@@@@@@@@@@@@@@@++++o@@@@@@@@@@@@@",
"@@@@@@@@@@@@@@O+++++@@@@@@@@@@@@@@@@@@@@@@@@@O++++X@@@@@@@@@@@@@",
"@@@@@@@@@@@@@@@++++o@@@@@@@@@@@@@@@@@@@@@@@@X++++O@@@@@@@@@@@@@@",
"@@@@@@@@@@@@@@@o++++O@@@@@@@@@@@@@@@@@@@@@@@+++++X@@@@@@@@@@@@@@",
"@@@@@@@@@@@@@@@@o++++X@@@@@@@@@@@@@@@@@@@@@X++++X@@@@@@@@@@@@@@@",
"@@@@@@@@@@@@@@@@O+++++O@@@@@@@@@@@@@@@@@@@o+++++@@@@@@@@@@@@@@@@",
"@@@@@@@@@@@@@@@@@O+++++OO@@@@@@@@@@@@@@@X+++++++@@@@@@@@@@@@@@@@",
"@@@@@@@@@@@@@@@@@@X++++++XO@@@@@@@@@@@oX++++++O@@@@@@@@@@@@@@@@@",
"@@@@@@@@@@@@@@@@@@@X++++++++X.@@@@@OO++++++++O@@@@@@@@@@@@@@@@@@",
"@@@@@@@@@@@@@@@@@@@@O+++++++++++++++++++++++O@@@@@@@@@@@@@@@@@@@",
"@@@@@@@@@@@@@@@@@@@@@@O+++++++++++++++++++O@@@@@@@@@@@@@@@@@@@@@",
"@@@@@@@@@@@@@@@@@@@@@@@XO+++++++++++++++Oo@@@@@@@@@@@@@@@@@@@@@@",
"@@@@@@@@@@@@@@@@@@@@@@@@@X++++++++++++XX@@@@@@@@@@@@@@@@@@@@@@@@",
"@@@@@@@@@@@@@@@@@@@@@@@@@@@@+OXo+O+OX@@@@@@@@@@@@@@@@@@@@@@@@@@@",
"@@@@@@@@@@@@@@@@@@@@@@@@@@@@@@@@@@@@@@@@@@@@@@@@@@@@@@@@@@@@@@@@",
"@@@@@@@@@@@@@@@@@@@@@@@@@@@@@@@@@@@@@@@@@@@@@@@@@@@@@@@@@@@@@@@@",
"@@@@@@@@@@@@@@@@@@@@@@@@@@@@@@@@@@@@@@@@@@@@@@@@@@@@@@@@@@@@@@@@",
"@@@@@@@@@@@@@@@@@@@@@@@@@@@@@@@@@@@@@@@@@@@@@@@@@@@@@@@@@@@@@@@@",
"@@@@@@@@@@@@@@@@@@@@@@@@@@@@@@@@@@@@@@@@@@@@@@@@@@@@@@@@@@@@@@@@",
"@@@@@@@@@@@@@@@@@@@@@@@@@@@@@@@@@@@@@@@@@@@@@@@@@@@@@@@@@@@@@@@@",
"@@@@@@@@@@@@@@@@@@@@@@@@@@@@@@@@@@@@@@@@@@@@@@@@@@@@@@@@@@@@@@@@",
"@@@@@@@@@@@@@@@@@@@@@@@@@@@@@@@@@@@@@@@@@@@@@@@@@@@@@@@@@@@@@@@@",
"@@@@@@@@@@@@@@@@@@@@@@@@@@@@@@@@@@@@@@@@@@@@@@@@@@@@@@@@@@@@@@@@",
"@@@@@@@@@@@@@@@@@@@@@@@@@@@@@@@@@@@@@@@@@@@@@@@@@@@@@@@@@@@@@@@@",
"@@@@@@@@@@@@@@@@@@@@@@@@@@@@@@@@@@@@@@@@@@@@@@@@@@@@@@@@@@@@@@@@",
"@@@@@@@@@@@@@@@@@@@@@@@@@@@@@@@@@@@@@@@@@@@@@@@@@@@@@@@@@@@@@@@@",
"@@@@@@@@@@@@@@@@@@@@@@@@@@@@@@@@@@@@@@@@@@@@@@@@@@@@@@@@@@@@@@@@",
"@@@@@@@@@@@@@@@@@@@@@@@@@@@@@@@@@@@@@@@@@@@@@@@@@@@@@@@@@@@@@@@@",
"@@@@@@@@@@@@@@@@@@@@@@@@@@@@@@@@@@@@@@@@@@@@@@@@@@@@@@@@@@@@@@@@"
};
