/* XPM */
static char *result[] = {
/* columns rows colors chars-per-pixel */
"64 64 3 1 ",
"  c #FEFEFE",
". c white",
"X c None",
/* pixels */
"XXXXXXXXXXXXXXXXXXXXXXXXXXXXXXXXXXXXXXXXXXXXXXXXXXXXXXXXXXXXXXXX",
"XXXXXXXXXXXXXXXXXXXXXXXXXXXXXXXXXXXXXXXXXXXXXXXXXXXXXXXXXXXXXXXX",
"XXXXXXXXXXXXXXXXXXXXXXXXXXXXXXXXXXXXXXXXXXXXXXXXXXXXXXXXXXXXXXXX",
"XXXXXXXXXXXXXXXXXXXXXXXXXXXXXXXXXXXXXXXXXXXXXXXXXXXXXXXXXXXXXXXX",
"XXXXXXXXXXXXXXXXXXXXXXXXXXXXXXXXXXXXXXXXXXXXXXXXXXXXXXXXXXXXXXXX",
"XXXXXXXXXXXXXXXXXXXXXXXXXXXXXXXXXXXXXXXXXXXXXXXXXXXXXXXXXXXXXXXX",
"XXXXXXXXXXXXXXXXXXXXXXXXXXXXXXXXXXXXXXXXXXXXXXXXXXXXXXXXXXXXXXXX",
"XXXXXXXXXXXXXXXXXXXXXXXXXXXXXXXXXXXXXXXXXXXXXXXXXXXXXXXXXXXXXXXX",
"XXXXXXXXXXXXXXXXXXXXXXXXXXXXXXXXXXXXXXXXXXXXXXXXXXXXXXXXXXXXXXXX",
"XXXXXXXXXXXXXXXXXXXXXXXXXXXXXXXXXXXXXXXXXXXXXXXXXXXXXXXXXXXXXXXX",
"XXXXXXXXXXXXXXXXXXXXXXXXXXXXX   ....   XXXXXXXXXXXXXXXXXXXXXXXXX",
"XXXXXXXXXXXXXXXXXXXXXXXXXX ............. XXXXXXXXXXXXXXXXXXXXXXX",
"XXXXXXXXXXXXXXXXXXXXXXXX ................. XXXXXXXXXXXXXXXXXXXXX",
"XXXXXXXXXXXXXXXXXXXXXX .................... .XXXXXXXXXXXXXXXXXXX",
"XXXXXXXXXXXXXXXXXXXXX ...............X ...... XXXXXXXXXXXXXXXXXX",
"XXXXXXXXXXXXXXXXXXX ...   .  .   .... XX ..... XXXXXXXXXXXXXXXXX",
"XXXXXXXXXXXXXXXXXX ... XXXXXXXXXXX ... XX ..... XXXXXXXXXXXXXXXX",
"XXXXXXXXXXXXXXXXXX...XXXXXXXXXXXXXXX ..XXXX ....XXXXXXXXXXXXXXXX",
"XXXXXXXXXXXXXXXXX .. XXXXXXXXXXXXXXXX.  XXXX ... XXXXXXXXXXXXXXX",
"XXXXXXXXXXXXXXXX .. XXXXXXXXXXXXXXXXXXX XXXXX.... XXXXXXXXXXXXXX",
"XXXXXXXXXXXXXXXX...XXXXXXXXXXXXXXXXXXXXXXXXXX ... XXXXXXXXXXXXXX",
"XXXXXXXXXXXXXXX .. XXXXXXXXXXXXXXXXXXXXXXXXXXX ....XXXXXXXXXXXXX",
"XXXXXXXXXXXXXX ...XXXXXXXXXXXXXXXXXXXXXXXXXXXX ... XXXXXXXXXXXXX",
"XXXXXXXXXXXXXX .. XXXXXXXXXXXXXXXXXXXXXXXXXXXXX....XXXXXXXXXXXXX",
"XXXXXXXXXXXXXX... XXXXXXXXXXXXXXXXXXXXXXXXXXXXX ... XXXXXXXXXXXX",
"XXXXXXXXXXXXX ...XXXXXXXXXXXXXXXXXXXXXXXXXXXXXX ... XXXXXXXXXXXX",
"XXXXXXXXXXXXX ...XXXXXXXXXXXXXXXXXXXXXXXXXXXXXX ... XXXXXXXXXXXX",
"XXXXXXXXXXXXX .. XXXXXXXXXXXXXXXXXXXXXXXXXXXXXXX....XXXXXXXXXXXX",
"XXXXXXXXXXXXX .. XXXXXXXXXXXXXXXXXXXXXXXXXXXXXXX....XXXXXXXXXXXX",
"XXXXXXXXXXXXX....XXXXXXXXXXXXXXXXXXXXXXXXXXXXXX ....XXXXXXXXXXXX",
"XXXXXXXXXXXXX ...XXXXXXXXXXXXXXXXXXXXXXXXXXXXXX.... XXXXXXXXXXXX",
"XXXXXXXXXXXXX ...XXXXXXXXXXXXXXXXXXXXXXXXXXXXXX ... XXXXXXXXXXXX",
"XXXXXXXXXXXXX ... XXXXXXXXXXXXXXXXXXXXXXXXXXXXX.... XXXXXXXXXXXX",
"XXXXXXXXXXXXX ... XXXXXXXXXXXXXXXXXXXXXXXXXXXXX.... XXXXXXXXXXXX",
"XXXXXXXXXXXXXX....XXXXXXXXXXXXXXXXXXXXXXXXXXXX ....XXXXXXXXXXXXX",
"XXXXXXXXXXXXXX ... XXXXXXXXXXXXXXXXXXXXXXXXXXX.... XXXXXXXXXXXXX",
"XXXXXXXXXXXXXX .....XXXXXXXXXXXXXXXXXXXXXXXXX .... XXXXXXXXXXXXX",
"XXXXXXXXXXXXXXX.... XXXXXXXXXXXXXXXXXXXXXXXX .... XXXXXXXXXXXXXX",
"XXXXXXXXXXXXXXX .... XXXXXXXXXXXXXXXXXXXXXXX..... XXXXXXXXXXXXXX",
"XXXXXXXXXXXXXXXX .... XXXXXXXXXXXXXXXXXXXXX .... XXXXXXXXXXXXXXX",
"XXXXXXXXXXXXXXXX ..... XXXXXXXXXXXXXXXXXXX .....XXXXXXXXXXXXXXXX",
"XXXXXXXXXXXXXXXXX .....  XXXXXXXXXXXXXXX ...... XXXXXXXXXXXXXXXX",
"XXXXXXXXXXXXXXXXXX ......  XXXXXXXXXXX  ...... XXXXXXXXXXXXXXXXX",
"XXXXXXXXXXXXXXXXXXX ........  XXXXX  ........ XXXXXXXXXXXXXXXXXX",
"XXXXXXXXXXXXXXXXXXXX ....................... XXXXXXXXXXXXXXXXXXX",
"XXXXXXXXXXXXXXXXXXXXXX ................... XXXXXXXXXXXXXXXXXXXXX",
"XXXXXXXXXXXXXXXXXXXXXXX  ............... .XXXXXXXXXXXXXXXXXXXXXX",
"XXXXXXXXXXXXXXXXXXXXXXXXX  ...........  XXXXXXXXXXXXXXXXXXXXXXXX",
"XXXXXXXXXXXXXXXXXXXXXXXXXXXX         XXXXXXXXXXXXXXXXXXXXXXXXXXX",
"XXXXXXXXXXXXXXXXXXXXXXXXXXXXXXXXXXXXXXXXXXXXXXXXXXXXXXXXXXXXXXXX",
"XXXXXXXXXXXXXXXXXXXXXXXXXXXXXXXXXXXXXXXXXXXXXXXXXXXXXXXXXXXXXXXX",
"XXXXXXXXXXXXXXXXXXXXXXXXXXXXXXXXXXXXXXXXXXXXXXXXXXXXXXXXXXXXXXXX",
"XXXXXXXXXXXXXXXXXXXXXXXXXXXXXXXXXXXXXXXXXXXXXXXXXXXXXXXXXXXXXXXX",
"XXXXXXXXXXXXXXXXXXXXXXXXXXXXXXXXXXXXXXXXXXXXXXXXXXXXXXXXXXXXXXXX",
"XXXXXXXXXXXXXXXXXXXXXXXXXXXXXXXXXXXXXXXXXXXXXXXXXXXXXXXXXXXXXXXX",
"XXXXXXXXXXXXXXXXXXXXXXXXXXXXXXXXXXXXXXXXXXXXXXXXXXXXXXXXXXXXXXXX",
"XXXXXXXXXXXXXXXXXXXXXXXXXXXXXXXXXXXXXXXXXXXXXXXXXXXXXXXXXXXXXXXX",
"XXXXXXXXXXXXXXXXXXXXXXXXXXXXXXXXXXXXXXXXXXXXXXXXXXXXXXXXXXXXXXXX",
"XXXXXXXXXXXXXXXXXXXXXXXXXXXXXXXXXXXXXXXXXXXXXXXXXXXXXXXXXXXXXXXX",
"XXXXXXXXXXXXXXXXXXXXXXXXXXXXXXXXXXXXXXXXXXXXXXXXXXXXXXXXXXXXXXXX",
"XXXXXXXXXXXXXXXXXXXXXXXXXXXXXXXXXXXXXXXXXXXXXXXXXXXXXXXXXXXXXXXX",
"XXXXXXXXXXXXXXXXXXXXXXXXXXXXXXXXXXXXXXXXXXXXXXXXXXXXXXXXXXXXXXXX",
"XXXXXXXXXXXXXXXXXXXXXXXXXXXXXXXXXXXXXXXXXXXXXXXXXXXXXXXXXXXXXXXX",
"XXXXXXXXXXXXXXXXXXXXXXXXXXXXXXXXXXXXXXXXXXXXXXXXXXXXXXXXXXXXXXXX"
};
